<svg height="512" viewBox="0 0 512 512" width="512" xmlns="http://www.w3.org/2000/svg"><path d="m56 128h16v56h-16z"/><path d="m128 56h64v16h-64z"/><path d="m24 56a31.774 31.774 0 0 0 9.375 22.625l-5.657 5.659 11.313 11.316 5.657-5.658 16.968 16.97a8 8 0 0 0 11.313 0l33.945-33.941a8 8 0 0 0 0-11.313l-16.976-16.973 5.656-5.658-11.313-11.312-5.658 5.659a31.666 31.666 0 0 0 -38.792-4.856l-10.175-10.174-11.312 11.312 10.174 10.174a31.7 31.7 0 0 0 -4.518 16.17zm54.626 0 11.319 11.312-22.633 22.629-11.312-11.314zm-33.938-11.312a15.993 15.993 0 0 1 22.624 0l-22.624 22.625a15.992 15.992 0 0 1 0-22.624z"/><path d="m116.001 95.716h15.998v56.569h-15.998z" transform="matrix(.707 -.707 .707 .707 -51.362 124)"/><path d="m440 128h16v56h-16z"/><path d="m320 56h64v16h-64z"/><path d="m439.031 106.91a8 8 0 0 0 11.313 0l16.968-16.97 5.657 5.658 11.312-11.313-5.657-5.659a31.669 31.669 0 0 0 4.857-38.795l10.174-10.174-11.311-11.313-10.175 10.174a31.666 31.666 0 0 0 -38.792 4.856l-5.658-5.659-11.313 11.312 5.656 5.658-16.976 16.971a8 8 0 0 0 0 11.313zm28.281-62.222a15.992 15.992 0 0 1 0 22.624l-22.624-22.625a16.377 16.377 0 0 1 22.624.001zm-33.938 11.312 22.626 22.627-11.312 11.314-22.633-22.629z"/><path d="m359.716 116.001h56.569v15.998h-56.569z" transform="matrix(.707 -.707 .707 .707 25.961 310.676)"/><path d="m463.266 416.734a39.811 39.811 0 0 0 -71.266-16.486 39.618 39.618 0 0 0 -63.825-.213c-.062 0-.113-.035-.175-.035h-8v-22.461l15.43-38.566a8.063 8.063 0 0 0 .57-2.973v-136a24.113 24.113 0 0 0 -24-24 24.027 24.027 0 0 0 -24 24v49.474a23.249 23.249 0 0 0 -24 4.768 23.249 23.249 0 0 0 -24-4.768v-49.474a24.113 24.113 0 0 0 -24-24 24.027 24.027 0 0 0 -24 24v97.562l-20.625-12.894a28.121 28.121 0 0 0 -14.975-4.348 28.384 28.384 0 0 0 -15.039 52.465l52.493 32.8 6.148 12.3v22.115h-8a7.864 7.864 0 0 0 -6.1 3.006 39.684 39.684 0 0 0 -65.9-2.758 39.811 39.811 0 0 0 -71.266 16.486 39.952 39.952 0 1 0 39.264 63.018 39.636 39.636 0 0 0 64 0 39.584 39.584 0 0 0 49.248 12.28 7.877 7.877 0 0 0 6.752 3.968h104a7.819 7.819 0 0 0 4.711-1.7 39.313 39.313 0 0 0 43.289-14.548 39.636 39.636 0 0 0 64 0 39.918 39.918 0 1 0 39.266-63.018zm-191.266-144.734a8 8 0 0 1 16 0v16a8 8 0 0 1 -16 0zm-32 8v-8a8 8 0 0 1 16 0v16a8 8 0 0 1 -16 0zm-90.148 39.223a12.383 12.383 0 0 1 6.546-22.9 11.97 11.97 0 0 1 6.477 1.907l32.883 20.558a8 8 0 0 0 12.242-6.788v-112a8.008 8.008 0 0 1 8-8 7.826 7.826 0 0 1 5.7 2.449 7.69 7.69 0 0 1 2.3 5.551v88a23.9 23.9 0 0 0 40 17.758 23.9 23.9 0 0 0 40-17.758v-88a8.008 8.008 0 0 1 8-8 7.826 7.826 0 0 1 5.7 2.449 7.69 7.69 0 0 1 2.3 5.551v134.461l-15.43 38.566a8.063 8.063 0 0 0 -.57 2.973v24h-40v-37.43a40.1 40.1 0 0 0 -20.156-34.73l-9.789-5.594-7.938 13.891 9.789 5.593a24.058 24.058 0 0 1 12.094 20.84v37.43h-32v-24a8 8 0 0 0 -.844-3.578l-8-16a7.973 7.973 0 0 0 -2.914-3.207zm-93.852 160.777a24 24 0 1 1 24-24 24.027 24.027 0 0 1 -24 24zm32-47.752a39.938 39.938 0 0 0 -22.882-15.1 23.841 23.841 0 0 1 45.764 0 39.938 39.938 0 0 0 -22.882 15.1zm32 47.752a24 24 0 1 1 24-24 24.027 24.027 0 0 1 -24 24zm32-47.752a39.938 39.938 0 0 0 -22.882-15.1 23.841 23.841 0 0 1 45.764 0 39.938 39.938 0 0 0 -22.882 15.1zm48 41.418a23.931 23.931 0 1 1 -16-41.666v8a8 8 0 0 0 8 8h8zm104 6.334h-88v-32h88zm8-48h-112v-16h120v16zm16 48a23.456 23.456 0 0 1 -8-1.578v-30.422h8a8 8 0 0 0 8-8v-6.526a23.941 23.941 0 0 1 -8 46.526zm32-47.752a39.938 39.938 0 0 0 -22.882-15.1 23.841 23.841 0 0 1 45.764 0 39.938 39.938 0 0 0 -22.882 15.1zm32 47.752a24 24 0 1 1 24-24 24.027 24.027 0 0 1 -24 24zm32-47.752a39.938 39.938 0 0 0 -22.882-15.1 23.841 23.841 0 0 1 45.764 0 39.938 39.938 0 0 0 -22.882 15.1zm32 47.752a24 24 0 1 1 24-24 24.027 24.027 0 0 1 -24 24z"/><path d="m392 224h16v16h-16z"/><path d="m368 248h16v16h-16z"/><path d="m416 248h16v16h-16z"/><path d="m392 272h16v16h-16z"/><path d="m56 296h16v16h-16z"/><path d="m32 320h16v16h-16z"/><path d="m80 320h16v16h-16z"/><path d="m56 344h16v16h-16z"/><path d="m112 176h16v16h-16z"/><path d="m96 192h16v16h-16z"/><path d="m128 192h16v16h-16z"/><path d="m112 208h16v16h-16z"/><path d="m448 320h16v16h-16z"/><path d="m432 336h16v16h-16z"/><path d="m464 336h16v16h-16z"/><path d="m448 352h16v16h-16z"/><path d="m193.383 147.508 13.234 8.984 30.183-44.492h38.547l30.02 44.477 13.266-8.954-30.633-45.384v-22.139h8v-16h-8a31.967 31.967 0 0 0 -24-30.864v-17.136h-16v17.136a31.967 31.967 0 0 0 -24 30.864h-8v16h8v22.375zm62.617-99.508a16.019 16.019 0 0 1 16 16h-32a16.019 16.019 0 0 1 16-16zm-16 32h32v16h-32z"/></svg>